<svg id="Layer_1" data-name="Layer 1" xmlns="http://www.w3.org/2000/svg" xmlns:xlink="http://www.w3.org/1999/xlink" viewBox="0 0 142 44" height="44px" width="142px"><defs><style>.cls-1{fill:#828282;}.cls-2{fill:url(#linear-gradient);}</style><linearGradient id="linear-gradient" x1="-0.18" y1="3.35" x2="37.76" y2="25.25" gradientTransform="matrix(1, 0, 0, -1, 0.97, 44)" gradientUnits="userSpaceOnUse"><stop offset="0.09" stop-color="#ffbe00"/><stop offset="0.82" stop-color="#f60"/></linearGradient></defs><title>Artboard 1</title><path class="cls-1" d="M51.4,24.7a8,8,0,0,1,.5-2.9,5.75,5.75,0,0,1,1.5-1.9,6.43,6.43,0,0,1,2.4-1,14.16,14.16,0,0,1,3.1-.3A9.72,9.72,0,0,1,62,19a4.47,4.47,0,0,1,2.2,1.3V18.8a5.46,5.46,0,0,0-.4-2.4,3.81,3.81,0,0,0-1.1-1.6,5.08,5.08,0,0,0-1.8-.9,8.75,8.75,0,0,0-2.4-.3c-.9,0-1.8.1-2.8.2a21.58,21.58,0,0,0-2.7.5l.5-2.9a15.77,15.77,0,0,1,2.5-.5,15.64,15.64,0,0,1,3.1-.2c2.8,0,4.9.6,6.3,1.9a7.07,7.07,0,0,1,2.2,5.6V30.9H64.4l-.3-2.1a4.7,4.7,0,0,1-2.5,1.9,9.51,9.51,0,0,1-3.5.6,7.87,7.87,0,0,1-5.2-1.5,5.52,5.52,0,0,1-1.8-4.5v-.6Zm3.6.2a3.25,3.25,0,0,0,1,2.6c.6.6,1.8.8,3.3.8a12.31,12.31,0,0,0,2-.2,3.39,3.39,0,0,0,1.5-.6,3.46,3.46,0,0,0,1-1.1,3.06,3.06,0,0,0,.4-1.7v-.3a2.93,2.93,0,0,0-1-2.3,5.85,5.85,0,0,0-3.4-.8h-.6a5.35,5.35,0,0,0-3.2.8,3,3,0,0,0-1,2.6Z"/><path class="cls-1" d="M83.1,14.3c-.3-.1-.7-.1-1.1-.2a4.87,4.87,0,0,0-1.2-.1,6.45,6.45,0,0,0-2,.3,3.36,3.36,0,0,0-1.6,1,5,5,0,0,0-1.1,1.9,8.47,8.47,0,0,0-.4,2.9V30.8H72V11.1h3.2l.3,2.6a5.65,5.65,0,0,1,2.4-2.2,7.55,7.55,0,0,1,3.5-.7,6.25,6.25,0,0,1,2.5.4Z"/><path class="cls-1" d="M90.1,21.3v9.5H86.6V2.5h3.5V18.6l8.1-7.4h4.4l-9.5,8.7,10,11H98.6Z"/><path class="cls-1" d="M107.1,22.1a8.47,8.47,0,0,0,.4,2.9,4,4,0,0,0,1.1,1.9,4.22,4.22,0,0,0,2.1,1.1,15.48,15.48,0,0,0,3.3.3,24.77,24.77,0,0,0,2.9-.2c.9-.1,1.6-.3,2.2-.4l-.5,2.7a20.74,20.74,0,0,1-2.6.6c-1.1.1-2.1.2-3.1.2a14.41,14.41,0,0,1-4.5-.6,6.53,6.53,0,0,1-2.9-1.8,8.57,8.57,0,0,1-1.6-3,16.42,16.42,0,0,1-.5-4.1V20.1a16,16,0,0,1,.5-3.9,7.08,7.08,0,0,1,1.5-3,6.62,6.62,0,0,1,2.7-1.9,9.55,9.55,0,0,1,4-.7,9.88,9.88,0,0,1,3.7.6,6.14,6.14,0,0,1,2.4,1.7,7.68,7.68,0,0,1,1.4,2.5,10.55,10.55,0,0,1,.4,3.1V20c0,.9-.1,1.5-.4,1.7a2.2,2.2,0,0,1-1.6.4Zm4.9-8.6a4.67,4.67,0,0,0-3.7,1.4c-.8.9-1.2,2.5-1.2,4.6h9.5v-1a5.63,5.63,0,0,0-1-3.7A4.41,4.41,0,0,0,112,13.5Z"/><path class="cls-1" d="M124.3,30.8V11.1h3.2l.3,2.4a6.16,6.16,0,0,1,2.6-2.2,8.57,8.57,0,0,1,3.6-.7,9.25,9.25,0,0,1,2.9.4,6.54,6.54,0,0,1,2.3,1.3,7.12,7.12,0,0,1,1.5,2.2,9.59,9.59,0,0,1,.5,3.1V30.8h-3.7v-12a5.89,5.89,0,0,0-1-3.9,4.25,4.25,0,0,0-3.4-1.2,4.87,4.87,0,0,0-3.8,1.3,6.3,6.3,0,0,0-1.3,4.3V30.8Z"/><path class="cls-2" d="M30.6,6.4a6.4,6.4,0,1,1-12.8,0,6.4,6.4,0,1,1,12.8,0ZM15.1,15.9a6.4,6.4,0,1,0,6.4,6.4A6.38,6.38,0,0,0,15.1,15.9Zm18.1,0a6.4,6.4,0,1,0,6.4,6.4A6.38,6.38,0,0,0,33.2,15.9ZM6.4,31.2A6.4,6.4,0,1,0,6.4,44a6.4,6.4,0,1,0,0-12.8Zm35.6,0a6.44,6.44,0,0,0-6.4,6.4,6.4,6.4,0,0,0,12.8,0A6.44,6.44,0,0,0,42,31.2Z"/></svg>